<?xml version="1.0" encoding="utf-8"?>
<!-- Generator: Adobe Illustrator 26.3.1, SVG Export Plug-In . SVG Version: 6.00 Build 0)  -->
<svg version="1.1" id="Layer_1" xmlns="http://www.w3.org/2000/svg" xmlns:xlink="http://www.w3.org/1999/xlink" x="0px" y="0px"
	 viewBox="0 0 18.5 14" style="enable-background:new 0 0 18.5 14;" xml:space="preserve">
<style type="text/css">
	.st0{fill:#231F20;}
</style>
<g>
	<path class="st0" d="M0.1,7L0.1,7c0.1,0.6,0.5,1,1,1h14.1l-1.3,1.3l0,0c-0.4,0.4-0.4,1,0,1.4l0,0c0.4,0.4,1,0.4,1.4,0l3-3l0,0
		c0.4-0.4,0.4-1,0-1.4l-3-3c-0.4-0.4-1-0.4-1.4,0c-0.4,0.4-0.4,1,0,1.4L15.2,6H1C0.5,6,0.1,6.5,0.1,7z"/>
	<path class="st0" d="M18.1,13L18.1,13c0,0.6-0.5,1-1,1H1c-0.6,0-1-0.5-1-1l0,0c0-0.6,0.5-1,1-1h16.1C17.7,12,18.1,12.4,18.1,13z"/>
	<path class="st0" d="M18.1,0.9V1c0,0.5-0.5,0.9-1,0.9H1C0.4,1.9,0,1.5,0,1l0-0.1C0,0.4,0.5,0,1,0l16.1,0C17.7,0,18.1,0.4,18.1,0.9z
		"/>
</g>
</svg>
