<?xml version="1.0" encoding="utf-8"?>
<!-- Generator: Adobe Illustrator 26.3.1, SVG Export Plug-In . SVG Version: 6.00 Build 0)  -->
<svg version="1.1" id="Layer_1" xmlns="http://www.w3.org/2000/svg" xmlns:xlink="http://www.w3.org/1999/xlink" x="0px" y="0px"
	 viewBox="0 0 18.5 14" style="enable-background:new 0 0 18.5 14;" xml:space="preserve">
<style type="text/css">
	.st0{fill:#231F20;}
</style>
<g>
	<path class="st0" d="M17.6,6H3.4l1.3-1.3c0.4-0.4,0.4-1,0-1.4s-1-0.4-1.4,0l-3,3c-0.4,0.4-0.4,1,0,1.4c0,0,0,0,0,0l3,3
		c0.4,0.4,1,0.4,1.4,0c0,0,0,0,0,0c0.4-0.4,0.4-1,0-1.4c0,0,0,0,0,0L3.4,8h14.1c0.5,0,0.9-0.4,1-0.9V7C18.5,6.5,18.1,6,17.6,6z"/>
	<path class="st0" d="M1.5,12h16.1c0.5,0,1,0.4,1,1V13c0,0.5-0.4,1-1,1H1.5c-0.5,0-1-0.4-1-1V13C0.5,12.4,0.9,12,1.5,12z"/>
	<path class="st0" d="M1.5,0h16.1c0.5,0,1,0.4,1,0.9v0.1c0,0.5-0.4,0.9-1,0.9H1.5c-0.5,0-1-0.4-1-0.9V0.9C0.5,0.4,0.9,0,1.5,0z"/>
</g>
</svg>
