<?xml version="1.0" encoding="utf-8"?>
<!-- Generator: Adobe Illustrator 26.3.1, SVG Export Plug-In . SVG Version: 6.00 Build 0)  -->
<svg version="1.1" id="Layer_1" xmlns="http://www.w3.org/2000/svg" xmlns:xlink="http://www.w3.org/1999/xlink" x="0px" y="0px"
	 viewBox="0 0 24 24" style="enable-background:new 0 0 24 24;" xml:space="preserve">
<style type="text/css">
	.st0{fill:#B5B3B3;}
</style>
<path class="st0" d="M19,13c-0.6,0-1,0.4-1,1v0.4l-1.5-1.5c-1.1-1.1-2.8-1.1-3.9,0l-0.7,0.7l-2.5-2.5c-1.1-1-2.8-1-3.9,0L4,12.6V7
	c0-0.6,0.4-1,1-1h7c0.6,0,1-0.4,1-1s-0.4-1-1-1H5C3.3,4,2,5.3,2,7v12c0,1.7,1.3,3,3,3h12c1.7,0,3-1.3,3-3v-5C20,13.4,19.6,13,19,13z
	 M5,20c-0.6,0-1-0.4-1-1v-3.6l2.9-2.9c0.3-0.3,0.8-0.3,1.1,0l3.2,3.2l0,0l4.3,4.3H5z M18,19c0,0.2-0.1,0.4-0.2,0.5L13.3,15l0.7-0.7
	c0.3-0.3,0.8-0.3,1.1,0c0,0,0,0,0,0l2.9,2.9V19z M22.7,4.3l-3-3c-0.1-0.1-0.2-0.2-0.3-0.2c-0.2-0.1-0.5-0.1-0.8,0
	c-0.1,0-0.2,0.1-0.3,0.2l-3,3c-0.4,0.4-0.4,1,0,1.4s1,0.4,1.4,0L18,4.4V10c0,0.6,0.4,1,1,1s1-0.4,1-1V4.4l1.3,1.3
	c0.4,0.4,1,0.4,1.4,0c0,0,0,0,0,0C23.1,5.3,23.1,4.7,22.7,4.3C22.7,4.3,22.7,4.3,22.7,4.3z"/>
</svg>
